<svg version="1" xmlns="http://www.w3.org/2000/svg" width="346.667" height="346.667" viewBox="0 0 260.000000 260.000000"><path d="M50 94.4v90.5l37.2 33.5c20.5 18.5 37.5 33.6 37.8 33.6.3 0 17.3-15.1 37.8-33.6l37.2-33.5V4H50v90.4zm91.3-30.2c9.4 29.9 18.7 63.1 24.8 88.7 1.6 6.9 3.2 13.4 3.5 14.3.5 1.7-.5 1.8-11.8 1.8h-12.4l-2.3-12.3c-1.3-6.7-2.6-12.8-2.9-13.5-.3-.9-4.1-1.2-16-1l-15.7.3-2.4 13.2-2.4 13.3H91.8c-6.5 0-11.8-.3-11.8-.7 0-1.1 9.9-39 13.1-50.3 4.3-15 19-63.4 19.6-64.3.2-.4 6-.7 12.8-.7h12.3l3.5 11.2z"/><path d="M124 76.3c0 .4-1.3 5.5-2.9 11.4-2.7 9.8-8.1 33.1-8.1 34.7 0 .3 5.2.6 11.5.6s11.5-.4 11.5-.9c0-4.4-9.7-43.9-11.1-45.6-.5-.5-.9-.6-.9-.2z"/></svg>